<?xml version="1.0" standalone="no"?>
<!DOCTYPE svg PUBLIC "-//W3C//DTD SVG 20010904//EN"
 "http://www.w3.org/TR/2001/REC-SVG-20010904/DTD/svg10.dtd">
<svg version="1.0" xmlns="http://www.w3.org/2000/svg"
 width="240.000000pt" height="240.000000pt" viewBox="0 0 240.000000 240.000000"
 preserveAspectRatio="xMidYMid meet">
<metadata>
Created by potrace 1.14, written by Peter Selinger 2001-2017
</metadata>
<g transform="translate(0.000000,240.000000) scale(0.100000,-0.100000)"
fill="#000000" stroke="none">
<path d="M649 2331 c-34 -33 -39 -45 -39 -83 0 -47 7 -60 165 -305 l60 -93 65
-1 c341 -5 523 -1 535 12 33 34 215 334 221 363 13 72 -51 146 -126 146 -42
-1 -56 -9 -147 -82 -38 -32 -73 -58 -75 -58 -3 0 -24 25 -47 55 -85 112 -176
114 -251 4 -18 -28 -38 -53 -42 -55 -5 -3 -40 20 -79 51 -88 71 -114 85 -163
85 -31 0 -45 -7 -77 -39z"/>
<path d="M760 1699 c-107 -48 -303 -223 -408 -364 -63 -83 -134 -224 -159
-315 -28 -101 -24 -319 8 -425 55 -183 177 -330 345 -417 316 -165 890 -171
1219 -13 257 123 395 352 396 655 1 239 -85 431 -285 639 -91 94 -241 214
-301 242 -54 25 -170 26 -184 2 -13 -24 -3 -44 99 -202 49 -77 90 -149 90
-160 0 -26 -34 -61 -58 -61 -10 0 -25 6 -34 13 -8 6 -73 101 -143 210 -70 109
-135 202 -145 207 -28 15 -66 12 -81 -6 -8 -9 -36 -61 -64 -117 -53 -107 -73
-125 -116 -103 -34 16 -35 54 -4 132 37 93 31 104 -58 104 -51 0 -85 -6 -117
-21z m478 -416 c3 -37 7 -44 30 -49 96 -21 151 -53 178 -105 22 -43 13 -55
-42 -64 -45 -6 -48 -5 -71 24 -21 27 -70 61 -88 61 -3 0 -5 -60 -5 -134 l0
-134 53 -12 c98 -24 170 -77 182 -136 3 -13 7 -35 10 -48 8 -40 -15 -124 -42
-157 -31 -37 -86 -66 -152 -80 -48 -10 -50 -12 -53 -47 -3 -37 -4 -37 -50 -40
l-48 -3 0 39 0 40 -67 12 c-38 6 -87 20 -110 30 -40 18 -43 21 -43 59 0 22 4
42 9 46 6 3 37 -3 69 -14 33 -11 78 -23 101 -27 l41 -7 0 134 0 134 -52 13
c-70 16 -137 59 -159 102 -13 23 -19 56 -19 99 0 120 55 185 178 211 l52 12 0
44 0 45 48 -3 47 -3 3 -42z"/>
<path d="M1079 1127 c-40 -27 -59 -60 -59 -106 0 -26 9 -42 39 -72 21 -22 48
-39 60 -39 21 0 22 3 19 117 -2 71 -7 118 -14 120 -6 2 -26 -7 -45 -20z"/>
<path d="M1240 660 c0 -76 4 -120 10 -120 25 0 78 30 98 55 43 55 18 130 -53
165 -23 11 -44 20 -48 20 -4 0 -7 -54 -7 -120z"/>
</g>
</svg>
